<mxfile host="app.diagrams.net" modified="2022-04-15T09:03:25.989Z" agent="5.0 (Macintosh; Intel Mac OS X 10_15_7) AppleWebKit/605.1.15 (KHTML, like Gecko) Version/15.4 Safari/605.1.15" etag="T3Oa7o9jLm_Qa7oYEIuN" version="17.4.4" type="github">
  <diagram id="1YSOgjtAHu8lS44mb7FD" name="Page-1">
    <mxGraphModel dx="946" dy="597" grid="1" gridSize="10" guides="1" tooltips="1" connect="1" arrows="1" fold="1" page="1" pageScale="1" pageWidth="900" pageHeight="1600" math="0" shadow="0">
      <root>
        <mxCell id="0" />
        <mxCell id="1" parent="0" />
        <mxCell id="dhVkkxzpI1AI_c7C-dmG-5" style="edgeStyle=orthogonalEdgeStyle;rounded=0;orthogonalLoop=1;jettySize=auto;html=1;startArrow=classic;startFill=1;exitX=1;exitY=0.5;exitDx=0;exitDy=0;exitPerimeter=0;" edge="1" parent="1" source="dhVkkxzpI1AI_c7C-dmG-33" target="dhVkkxzpI1AI_c7C-dmG-32">
          <mxGeometry relative="1" as="geometry">
            <mxPoint x="260" y="70" as="targetPoint" />
            <mxPoint x="190" y="40" as="sourcePoint" />
          </mxGeometry>
        </mxCell>
        <mxCell id="hc0SCKD6t5G1tuEiW9C8-8" value="MQTT" style="fontColor=#0066CC;verticalAlign=top;verticalLabelPosition=bottom;labelPosition=center;align=center;html=1;outlineConnect=0;fillColor=#CCCCCC;strokeColor=#6881B3;gradientColor=none;gradientDirection=north;strokeWidth=2;shape=mxgraph.networks.virtual_server;" parent="1" vertex="1">
          <mxGeometry x="810" y="370" width="50.42" height="55" as="geometry" />
        </mxCell>
        <mxCell id="hc0SCKD6t5G1tuEiW9C8-9" value="Home Assistant" style="fontColor=#0066CC;verticalAlign=top;verticalLabelPosition=bottom;labelPosition=center;align=center;html=1;outlineConnect=0;fillColor=#CCCCCC;strokeColor=#6881B3;gradientColor=none;gradientDirection=north;strokeWidth=2;shape=mxgraph.networks.virtual_server;" parent="1" vertex="1">
          <mxGeometry x="687.29" y="425" width="50.42" height="55" as="geometry" />
        </mxCell>
        <mxCell id="KFdVDk0zgNlEz9jAVwxf-3" value="" style="edgeStyle=orthogonalEdgeStyle;rounded=0;orthogonalLoop=1;jettySize=auto;html=1;dashed=1;" parent="1" source="hc0SCKD6t5G1tuEiW9C8-10" target="hc0SCKD6t5G1tuEiW9C8-9" edge="1">
          <mxGeometry relative="1" as="geometry" />
        </mxCell>
        <mxCell id="dhVkkxzpI1AI_c7C-dmG-1" style="edgeStyle=orthogonalEdgeStyle;rounded=0;orthogonalLoop=1;jettySize=auto;html=1;dashed=1;" edge="1" parent="1" source="hc0SCKD6t5G1tuEiW9C8-10" target="hc0SCKD6t5G1tuEiW9C8-8">
          <mxGeometry relative="1" as="geometry" />
        </mxCell>
        <mxCell id="hc0SCKD6t5G1tuEiW9C8-10" value="ladyrona&lt;br&gt;" style="fontColor=#0066CC;verticalAlign=top;verticalLabelPosition=bottom;labelPosition=center;align=center;html=1;outlineConnect=0;fillColor=#CCCCCC;strokeColor=#6881B3;gradientColor=none;gradientDirection=north;strokeWidth=2;shape=mxgraph.networks.server_storage;" parent="1" vertex="1">
          <mxGeometry x="680" y="300" width="65" height="70" as="geometry" />
        </mxCell>
        <mxCell id="dhVkkxzpI1AI_c7C-dmG-6" style="edgeStyle=orthogonalEdgeStyle;rounded=0;orthogonalLoop=1;jettySize=auto;html=1;startArrow=classic;startFill=1;entryX=0;entryY=0.5;entryDx=0;entryDy=0;entryPerimeter=0;" edge="1" parent="1" source="dhVkkxzpI1AI_c7C-dmG-32" target="dhVkkxzpI1AI_c7C-dmG-30">
          <mxGeometry relative="1" as="geometry">
            <mxPoint x="380" y="69.5" as="sourcePoint" />
            <mxPoint x="540" y="70" as="targetPoint" />
            <Array as="points" />
          </mxGeometry>
        </mxCell>
        <mxCell id="dhVkkxzpI1AI_c7C-dmG-4" style="edgeStyle=orthogonalEdgeStyle;rounded=0;orthogonalLoop=1;jettySize=auto;html=1;exitX=0.5;exitY=1;exitDx=0;exitDy=0;exitPerimeter=0;entryX=0.556;entryY=0.164;entryDx=0;entryDy=0;entryPerimeter=0;startArrow=classic;startFill=1;" edge="1" parent="1" source="dhVkkxzpI1AI_c7C-dmG-15" target="dhVkkxzpI1AI_c7C-dmG-25">
          <mxGeometry relative="1" as="geometry" />
        </mxCell>
        <mxCell id="dhVkkxzpI1AI_c7C-dmG-7" style="edgeStyle=orthogonalEdgeStyle;rounded=0;orthogonalLoop=1;jettySize=auto;html=1;exitX=0.5;exitY=1;exitDx=0;exitDy=0;exitPerimeter=0;" edge="1" parent="1" source="dhVkkxzpI1AI_c7C-dmG-2" target="hc0SCKD6t5G1tuEiW9C8-10">
          <mxGeometry relative="1" as="geometry" />
        </mxCell>
        <mxCell id="dhVkkxzpI1AI_c7C-dmG-19" style="edgeStyle=orthogonalEdgeStyle;rounded=0;orthogonalLoop=1;jettySize=auto;html=1;exitX=0;exitY=0.5;exitDx=0;exitDy=0;exitPerimeter=0;startArrow=classic;startFill=1;strokeColor=default;comic=0;flowAnimation=0;backgroundOutline=0;" edge="1" parent="1" source="dhVkkxzpI1AI_c7C-dmG-2" target="dhVkkxzpI1AI_c7C-dmG-15">
          <mxGeometry relative="1" as="geometry" />
        </mxCell>
        <mxCell id="dhVkkxzpI1AI_c7C-dmG-20" style="edgeStyle=orthogonalEdgeStyle;rounded=0;orthogonalLoop=1;jettySize=auto;html=1;startArrow=classic;startFill=1;strokeColor=default;" edge="1" parent="1" source="dhVkkxzpI1AI_c7C-dmG-2" target="dhVkkxzpI1AI_c7C-dmG-18">
          <mxGeometry relative="1" as="geometry" />
        </mxCell>
        <mxCell id="dhVkkxzpI1AI_c7C-dmG-2" value="Main Switch" style="fontColor=#0066CC;verticalAlign=top;verticalLabelPosition=bottom;labelPosition=center;align=center;html=1;outlineConnect=0;fillColor=#CCCCCC;strokeColor=#6881B3;gradientColor=none;gradientDirection=north;strokeWidth=2;shape=mxgraph.networks.switch;" vertex="1" parent="1">
          <mxGeometry x="662.5" y="160" width="100" height="30" as="geometry" />
        </mxCell>
        <mxCell id="dhVkkxzpI1AI_c7C-dmG-9" style="edgeStyle=orthogonalEdgeStyle;rounded=0;orthogonalLoop=1;jettySize=auto;html=1;entryX=1;entryY=0.5;entryDx=0;entryDy=0;entryPerimeter=0;exitX=0.5;exitY=1;exitDx=0;exitDy=0;exitPerimeter=0;strokeColor=default;startArrow=classic;startFill=1;" edge="1" parent="1" source="dhVkkxzpI1AI_c7C-dmG-8" target="dhVkkxzpI1AI_c7C-dmG-2">
          <mxGeometry relative="1" as="geometry" />
        </mxCell>
        <mxCell id="dhVkkxzpI1AI_c7C-dmG-8" value="Pihole" style="fontColor=#0066CC;verticalAlign=top;verticalLabelPosition=bottom;labelPosition=center;align=center;html=1;outlineConnect=0;fillColor=#CCCCCC;strokeColor=#6881B3;gradientColor=none;gradientDirection=north;strokeWidth=2;shape=mxgraph.networks.server;" vertex="1" parent="1">
          <mxGeometry x="780" y="60" width="40" height="50" as="geometry" />
        </mxCell>
        <mxCell id="dhVkkxzpI1AI_c7C-dmG-12" style="edgeStyle=orthogonalEdgeStyle;rounded=0;orthogonalLoop=1;jettySize=auto;html=1;exitX=1;exitY=0.5;exitDx=0;exitDy=0;exitPerimeter=0;startArrow=classic;startFill=1;" edge="1" parent="1" source="dhVkkxzpI1AI_c7C-dmG-30" target="dhVkkxzpI1AI_c7C-dmG-2">
          <mxGeometry relative="1" as="geometry">
            <mxPoint x="600" y="70" as="sourcePoint" />
          </mxGeometry>
        </mxCell>
        <mxCell id="dhVkkxzpI1AI_c7C-dmG-16" style="edgeStyle=orthogonalEdgeStyle;rounded=0;orthogonalLoop=1;jettySize=auto;html=1;startArrow=classic;startFill=1;strokeColor=default;" edge="1" parent="1" source="dhVkkxzpI1AI_c7C-dmG-15" target="dhVkkxzpI1AI_c7C-dmG-28">
          <mxGeometry relative="1" as="geometry" />
        </mxCell>
        <mxCell id="dhVkkxzpI1AI_c7C-dmG-35" value="Cabled" style="edgeLabel;html=1;align=center;verticalAlign=middle;resizable=0;points=[];" vertex="1" connectable="0" parent="dhVkkxzpI1AI_c7C-dmG-16">
          <mxGeometry x="-0.3455" y="1" relative="1" as="geometry">
            <mxPoint as="offset" />
          </mxGeometry>
        </mxCell>
        <mxCell id="dhVkkxzpI1AI_c7C-dmG-15" value="Work VLAN" style="fontColor=#0066CC;verticalAlign=top;verticalLabelPosition=bottom;labelPosition=center;align=center;html=1;outlineConnect=0;fillColor=#CCCCCC;strokeColor=#6881B3;gradientColor=none;gradientDirection=north;strokeWidth=2;shape=mxgraph.networks.hub;" vertex="1" parent="1">
          <mxGeometry x="180" y="160" width="100" height="30" as="geometry" />
        </mxCell>
        <mxCell id="dhVkkxzpI1AI_c7C-dmG-18" value="IoT VLAN" style="fontColor=#0066CC;verticalAlign=top;verticalLabelPosition=bottom;labelPosition=center;align=center;html=1;outlineConnect=0;fillColor=#CCCCCC;strokeColor=#6881B3;gradientColor=none;gradientDirection=north;strokeWidth=2;shape=mxgraph.networks.hub;" vertex="1" parent="1">
          <mxGeometry x="380" y="230" width="100" height="30" as="geometry" />
        </mxCell>
        <mxCell id="dhVkkxzpI1AI_c7C-dmG-25" value="" style="shape=mxgraph.cisco.computers_and_peripherals.laptop;sketch=0;html=1;pointerEvents=1;dashed=0;fillColor=#036897;strokeColor=#ffffff;strokeWidth=2;verticalLabelPosition=bottom;verticalAlign=top;align=center;outlineConnect=0;" vertex="1" parent="1">
          <mxGeometry x="30" y="410" width="90" height="61" as="geometry" />
        </mxCell>
        <mxCell id="dhVkkxzpI1AI_c7C-dmG-28" value="" style="shape=mxgraph.cisco.computers_and_peripherals.laptop;sketch=0;html=1;pointerEvents=1;dashed=0;fillColor=#036897;strokeColor=#ffffff;strokeWidth=2;verticalLabelPosition=bottom;verticalAlign=top;align=center;outlineConnect=0;" vertex="1" parent="1">
          <mxGeometry x="185" y="410" width="90" height="61" as="geometry" />
        </mxCell>
        <mxCell id="dhVkkxzpI1AI_c7C-dmG-30" value="OPNSense (tbd)" style="shape=mxgraph.cisco.security.firewall;sketch=0;html=1;pointerEvents=1;dashed=0;fillColor=#036897;strokeColor=#ffffff;strokeWidth=2;verticalLabelPosition=bottom;verticalAlign=top;align=center;outlineConnect=0;" vertex="1" parent="1">
          <mxGeometry x="555.5" y="15" width="29" height="67" as="geometry" />
        </mxCell>
        <mxCell id="dhVkkxzpI1AI_c7C-dmG-32" value="Linksys Router" style="shape=mxgraph.cisco.routers.wireless_router;sketch=0;html=1;pointerEvents=1;dashed=0;fillColor=#036897;strokeColor=#ffffff;strokeWidth=2;verticalLabelPosition=bottom;verticalAlign=top;align=center;outlineConnect=0;" vertex="1" parent="1">
          <mxGeometry x="270" y="10" width="78" height="77" as="geometry" />
        </mxCell>
        <mxCell id="dhVkkxzpI1AI_c7C-dmG-33" value="" style="shape=mxgraph.cisco.modems_and_phones.modem;sketch=0;html=1;pointerEvents=1;dashed=0;fillColor=#036897;strokeColor=#ffffff;strokeWidth=2;verticalLabelPosition=bottom;verticalAlign=top;align=center;outlineConnect=0;" vertex="1" parent="1">
          <mxGeometry x="43" y="35" width="77" height="27" as="geometry" />
        </mxCell>
      </root>
    </mxGraphModel>
  </diagram>
</mxfile>
